<?xml version="1.0" standalone="no"?>
<!DOCTYPE svg PUBLIC "-//W3C//DTD SVG 20010904//EN"
 "http://www.w3.org/TR/2001/REC-SVG-20010904/DTD/svg10.dtd">
<svg version="1.0" xmlns="http://www.w3.org/2000/svg"
 width="512.000000pt" height="512.000000pt" viewBox="0 0 512.000000 512.000000"
 preserveAspectRatio="xMidYMid meet">
<metadata>
Created by potrace 1.14, written by Peter Selinger 2001-2017
</metadata>
<g transform="translate(0.000000,512.000000) scale(0.100000,-0.100000)"
fill="#000000" stroke="none">
<path d="M4068 4821 c-54 -11 -77 -30 -184 -148 -349 -389 -572 -483 -1661
-702 -285 -58 -424 -100 -566 -171 -491 -248 -812 -664 -929 -1204 -26 -120
-35 -397 -18 -533 13 -107 40 -233 65 -303 l16 -44 -90 -91 c-120 -121 -201
-235 -271 -380 -66 -134 -92 -207 -120 -340 -24 -109 -41 -325 -31 -381 30
-163 224 -230 347 -121 55 47 66 79 75 213 18 261 83 441 223 620 l60 77 25
-34 c139 -183 276 -315 447 -428 383 -256 828 -342 1324 -257 950 163 1741
934 1929 1881 35 174 44 312 38 559 -12 467 -79 814 -234 1206 -78 197 -202
462 -238 508 -46 58 -132 88 -207 73z m71 -794 c88 -234 146 -496 170 -757 42
-471 7 -755 -134 -1085 -206 -482 -619 -877 -1128 -1079 -180 -71 -418 -116
-619 -116 -351 0 -637 107 -886 332 -77 70 -192 202 -192 221 0 15 74 39 285
92 377 95 623 197 937 386 210 127 406 284 447 358 45 83 25 199 -47 264 -48
44 -153 59 -217 32 -19 -7 -72 -46 -118 -86 -196 -171 -540 -361 -842 -466
-38 -13 -158 -46 -265 -73 -166 -42 -281 -76 -351 -105 -27 -11 -53 148 -53
325 0 528 313 987 807 1185 95 38 250 76 485 119 79 15 232 47 340 72 632 144
952 279 1217 513 l80 70 16 -32 c9 -18 40 -94 68 -170z"/>
</g>
</svg>
